<svg width="104" height="22" viewBox="0 0 104 22" fill="none" xmlns="http://www.w3.org/2000/svg">
<path d="M36.248 16.8179C36.248 17.0712 36.1161 17.2718 35.7995 17.2718H35.7573C35.5778 17.2718 35.4459 17.1662 35.3931 17.0132L30.3272 2.59103C29.7836 1.03958 28.5277 0 26.6966 0H25.8945C22.9604 0 21.8417 1.83113 21.8417 4.08971V21.8206H25.8945V5.00264C25.8945 4.74934 26.0264 4.54881 26.343 4.54881H26.3852C26.5646 4.54881 26.6966 4.65435 26.7493 4.80739L31.8153 19.2296C32.3588 20.781 33.6148 21.8206 35.4459 21.8206H36.248C39.1821 21.8206 40.3008 19.9894 40.3008 17.7309V0H36.248V16.8179ZM14.3852 2.59103C13.8417 1.03958 12.8496 0 10.7546 0H10.1372C8.04749 0 7.05541 1.0343 6.5066 2.59103L0 21.1293L4.11082 21.8206L10.0844 4.80739C10.1372 4.64908 10.2427 4.54881 10.4485 4.54881C10.6544 4.54881 10.7599 4.65435 10.8127 4.80739L15.1821 17.2559C15.3193 17.6517 14.9763 18.0422 14.5699 17.9525C11.9472 17.3984 9.37731 15.5831 8.07916 13.9156L6.74934 17.7045C9.34565 20.248 12.8813 21.9947 16.781 21.9947H16.7968C20.3219 21.9947 20.3905 19.6992 19.6834 17.6887L14.3852 2.59103ZM43.8997 21.8206H47.9525V0H43.8997V21.8206ZM60.1847 0H51.5515V21.8206H55.6042V16.3641C55.6042 16.3641 57.9947 16.8179 60.438 16.8179C64.4538 16.8179 65.8628 15.6834 66.4011 12.5646C66.5963 11.4301 66.6544 10.1478 66.6544 8.40633C66.6544 6.94459 66.6332 5.84697 66.5383 4.82322C66.2058 1.25066 64.8179 0 60.1847 0ZM62.6016 8.41161C62.6016 9.76253 62.5541 10.5224 62.438 11.2823C62.1794 12.9763 61.7045 13.3826 60.5066 13.3826C57.2612 13.3826 55.6042 12.7018 55.6042 12.7018V3.44063H60.3166C61.9895 3.44063 62.496 4.07916 62.5805 5.97889C62.6121 6.68602 62.6016 7.31398 62.6016 8.40633V8.41161ZM99.6939 16.8232C99.6939 17.0765 99.562 17.277 99.2454 17.277H99.2032C99.0238 17.277 98.8918 17.1715 98.8391 17.0185L93.7731 2.59631C93.2296 1.04485 91.9736 0.00527705 90.1425 0.00527705H89.3404C86.4063 0.00527705 85.2876 1.83641 85.2876 4.09499V16.5594C85.2876 17.562 85.0607 18.3799 83.2559 18.3799H74.9763C72.6438 18.3799 72.5013 16.8021 72.5013 15.1346V12.7599H82.2902V9.06596H72.5013V6.69129C72.5013 5.02375 72.6491 3.44591 74.9763 3.44591H82.9182L83.4829 0.00527705H75.1662C70.8918 0.00527705 68.8602 1.53034 68.5699 5.71504C68.4697 7.14512 68.4433 8.83377 68.4433 10.9129C68.4433 12.9921 68.4697 14.6807 68.5699 16.1108C68.8602 20.3008 70.8918 21.8206 75.1662 21.8206H82.7968C88.0897 21.8206 89.3298 19.3773 89.3298 16.3641V5.00264C89.3298 4.74934 89.4618 4.54881 89.7784 4.54881H89.8206C90 4.54881 90.1319 4.65435 90.1847 4.80739L95.2507 19.2296C95.7942 20.781 97.0501 21.8206 98.8813 21.8206H99.6834C102.617 21.8206 103.736 19.9894 103.736 17.7309V0H99.6834V16.8179L99.6939 16.8232Z" fill="#2B3B47"/>
</svg>
